# xmcd CD database file
#
# Track frame offsets:
#	150
#	34613
#	74786
#	97878
#	117292
#	142376
#	166359
#	180400
#	210291
#	242152
#
# Disc length: 3525 seconds
#
# Revision: 0
# Processed by: cddbd v1.5.2PL0 Copyright (c) Steve Scherf et al.
# Submitted via: CDex 1.70beta2
#
DISCID=8c0dc30a
DTITLE=Lucas Martinez Group - Fly
DYEAR=2013
DGENRE=Jazz
TTITLE0=I'LL BE SEEING YOU
TTITLE1=ISLERO
TTITLE2=ON THE SUNNY SIDE
TTITLE3=NEW YORK
TTITLE4=INSIDE
TTITLE5=SOL Y AIRE
TTITLE6=MECENAS
TTITLE7=A CESAR
TTITLE8=WALTZ FOR SONNY
TTITLE9=OUR SPANISH LOVE SONG
EXTD=YEAR: 2013
EXTT0=
EXTT1=
EXTT2=
EXTT3=
EXTT4=
EXTT5=
EXTT6=
EXTT7=
EXTT8=
EXTT9=
PLAYORDER=
